<svg width="20" height="20" viewBox="0 0 20 20" fill="none" xmlns="http://www.w3.org/2000/svg">
<g clip-path="url(#clip0_467_138)">
<path d="M10.064 1.21484C5.13397 1.21484 1.13281 5.216 1.13281 10.146C1.13281 15.076 5.13397 19.0771 10.064 19.0771C14.994 19.0771 18.9951 15.076 18.9951 10.146C18.9951 5.216 14.994 1.21484 10.064 1.21484ZM14.208 7.28802C14.074 8.69914 13.4935 12.1287 13.1988 13.7095C13.0738 14.3794 12.8237 14.6026 12.5915 14.6294C12.0735 14.6741 11.6805 14.29 11.1804 13.9596C10.3944 13.4416 9.94785 13.1201 9.18871 12.6199C8.30452 12.0394 8.87612 11.7179 9.38519 11.1999C9.51916 11.0659 11.8055 8.98494 11.8502 8.79739C11.8564 8.76898 11.8556 8.73949 11.8478 8.71147C11.84 8.68346 11.8255 8.65776 11.8055 8.63663C11.7519 8.59197 11.6805 8.60983 11.618 8.61876C11.5376 8.63663 10.2872 9.46722 7.84903 11.1106C7.49179 11.3517 7.17027 11.4767 6.88447 11.4678C6.56295 11.4589 5.95563 11.2892 5.50014 11.1373C4.93748 10.9587 4.49985 10.8605 4.53558 10.5479C4.55344 10.3871 4.77672 10.2264 5.19648 10.0567C7.80438 8.92242 9.53702 8.17221 10.4033 7.81496C12.8862 6.77895 13.3953 6.60032 13.7347 6.60032C13.8061 6.60032 13.9758 6.61819 14.083 6.7075C14.1723 6.77895 14.1991 6.87719 14.208 6.94864C14.1991 7.00223 14.2169 7.16299 14.208 7.28802Z" fill="url(#paint0_linear_467_138)"/>
</g>
<defs>
<linearGradient id="paint0_linear_467_138" x1="18.9951" y1="10.146" x2="1.13281" y2="10.146" gradientUnits="userSpaceOnUse">
<stop stop-color="#FFE601"/>
<stop offset="1" stop-color="#FF7800"/>
</linearGradient>
<clipPath id="clip0_467_138">
<rect width="18.4678" height="18.4678" fill="white" transform="translate(0.830078 0.910156)"/>
</clipPath>
</defs>
</svg>
