<svg width="20" height="20" viewBox="0 0 20 20" fill="none" xmlns="http://www.w3.org/2000/svg">
<path d="M9.87071 2.44922C14.1205 2.44922 17.5656 5.89435 17.5656 10.1441C17.5656 14.3939 14.1205 17.839 9.87071 17.839C8.45954 17.839 7.1371 17.4592 6.00006 16.7962L2.179 17.839L3.21932 14.0158C2.55588 12.8786 2.17578 11.5558 2.17578 10.1441C2.17578 5.89435 5.62091 2.44922 9.87071 2.44922ZM7.09386 6.53393C6.9943 6.54093 6.89668 6.56524 6.8078 6.61071C6.74113 6.64482 6.67923 6.69413 6.58197 6.78596C6.49014 6.87268 6.43691 6.94841 6.38083 7.02143C6.09635 7.39182 5.94345 7.84647 5.94629 8.3135C5.94784 8.69103 6.0459 9.05792 6.20077 9.4005C6.51482 10.0952 7.03273 10.8296 7.71686 11.5107C7.88119 11.6743 8.04219 11.8396 8.2158 11.9925C9.0649 12.7401 10.0768 13.2792 11.1709 13.567C11.1709 13.567 11.6018 13.6332 11.6081 13.6335C11.7509 13.6412 11.8934 13.6309 12.0363 13.6236C12.2604 13.6121 12.4793 13.5514 12.6774 13.4459C12.8047 13.3782 12.865 13.3444 12.9718 13.277C12.9718 13.277 13.0046 13.2549 13.0679 13.2078C13.1718 13.1304 13.2359 13.0759 13.3223 12.9862C13.3861 12.92 13.4408 12.8418 13.4832 12.7537C13.5433 12.6281 13.6039 12.3884 13.628 12.1894C13.6464 12.0373 13.6408 11.9542 13.6388 11.9027C13.6355 11.8199 13.5671 11.7347 13.4922 11.6986L13.0447 11.4974C13.0447 11.4974 12.3756 11.2063 11.9664 11.0196C11.9238 11.0001 11.8772 10.9911 11.8303 10.9883C11.7276 10.982 11.6126 11.0087 11.5394 11.0858C11.5356 11.0843 11.4846 11.1283 10.9279 11.8028C10.8972 11.8395 10.8253 11.9193 10.7008 11.9118C10.6821 11.9105 10.6634 11.9078 10.6451 11.903C10.5947 11.8897 10.5456 11.8722 10.4976 11.8519C10.4024 11.8115 10.369 11.7962 10.304 11.7681C9.85978 11.5741 9.45211 11.3145 9.09176 10.9967C8.99511 10.9116 8.90523 10.82 8.81258 10.7302C8.48924 10.4168 8.22453 10.0834 8.0276 9.75462C8.01685 9.73669 8.00029 9.71076 7.98244 9.68175C7.95022 9.62934 7.91469 9.56701 7.90354 9.52423C7.87494 9.41104 7.95082 9.32008 7.95082 9.32008C7.95082 9.32008 8.13812 9.11532 8.22514 9.00398C8.30886 8.89679 8.38113 8.79198 8.42714 8.71727C8.51779 8.57155 8.54649 8.42095 8.49886 8.30476C8.28297 7.77845 8.06024 7.25497 7.83068 6.73447C7.78537 6.63175 7.65061 6.55712 7.52806 6.54297C7.48656 6.53817 7.44508 6.53336 7.40341 6.53062C7.30025 6.52558 7.19688 6.52669 7.09386 6.53393Z" fill="url(#paint0_linear_467_149)"/>
<defs>
<linearGradient id="paint0_linear_467_149" x1="17.5656" y1="10.1441" x2="2.17578" y2="10.1441" gradientUnits="userSpaceOnUse">
<stop stop-color="#FFE601"/>
<stop offset="0.5625" stop-color="#FF7800"/>
</linearGradient>
</defs>
</svg>
