<svg width="19" height="20" viewBox="0 0 19 20" fill="none" xmlns="http://www.w3.org/2000/svg">
<g clip-path="url(#clip0_467_145)">
<path d="M9.4253 0.910156C4.32819 0.910156 0.191406 5.04694 0.191406 10.1441C0.191406 15.2412 4.32819 19.378 9.4253 19.378C14.5224 19.378 18.6592 15.2412 18.6592 10.1441C18.6592 5.04694 14.5224 0.910156 9.4253 0.910156ZM9.4253 15.6105C6.40582 15.6105 3.95884 13.1635 3.95884 10.1441C3.95884 7.12457 6.40582 4.67759 9.4253 4.67759C12.4448 4.67759 14.8918 7.12457 14.8918 10.1441C14.8918 13.1635 12.4448 15.6105 9.4253 15.6105ZM9.4253 5.35166C6.78441 5.35166 4.63291 7.50316 4.63291 10.1441C4.63291 12.7849 6.78441 14.9364 9.4253 14.9364C12.0662 14.9364 14.2177 12.7849 14.2177 10.1441C14.2177 7.50316 12.0662 5.35166 9.4253 5.35166ZM7.64316 12.8681V7.42005L12.3617 10.1441L7.64316 12.8681Z" fill="url(#paint0_linear_467_145)"/>
</g>
<defs>
<linearGradient id="paint0_linear_467_145" x1="18.6592" y1="10.1441" x2="0.191406" y2="10.1441" gradientUnits="userSpaceOnUse">
<stop stop-color="#FFE601"/>
<stop offset="1" stop-color="#FF7800"/>
</linearGradient>
<clipPath id="clip0_467_145">
<rect width="18.4678" height="18.4678" fill="white" transform="translate(0.191406 0.910156)"/>
</clipPath>
</defs>
</svg>
