<svg width="64" height="60" viewBox="0 0 64 60" fill="none" xmlns="http://www.w3.org/2000/svg">
<path d="M6.4 60C4.64 60 3.13333 59.3816 1.88 58.1447C0.626667 56.9079 0 55.4211 0 53.6842V9.47368C0 7.73684 0.626667 6.25 1.88 5.01316C3.13333 3.77632 4.64 3.15789 6.4 3.15789H32V9.47368H6.4V53.6842H51.2V31.5789H57.6V53.6842C57.6 55.4211 56.9733 56.9079 55.72 58.1447C54.4667 59.3816 52.96 60 51.2 60H6.4ZM9.6 47.3684H48L36 31.5789L26.4 44.2105L19.2 34.7368L9.6 47.3684ZM48 25.2632V12.0789L42.88 17.0526L38.4 12.6316L51.2 0L64 12.6316L59.52 17.0526L54.4 12.0789V25.2632H48Z" fill="#5F6368"/>
</svg>
